<?xml version="1.0" standalone="no"?><!-- Generator: Gravit.io --><svg xmlns="http://www.w3.org/2000/svg" xmlns:xlink="http://www.w3.org/1999/xlink" style="isolation:isolate" viewBox="0 0 280 470" width="280" height="470" class="logo"><defs><clipPath id="_clipPath_SwNjQ6AJZ8Dp9MXC5AySZWDn40CiszTQ"><rect width="280" height="470"/></clipPath></defs><g clip-path="url(#_clipPath_SwNjQ6AJZ8Dp9MXC5AySZWDn40CiszTQ)"><clipPath id="_clipPath_jwlmxckhy78Lzs8cqi7ZhsfyqRZ2aou9"><rect x="28.5" y="55.541" width="223" height="357" transform="matrix(-1,0,0,-1,280,468.081)" fill="rgb(255,255,255)"/></clipPath><g clip-path="url(#_clipPath_jwlmxckhy78Lzs8cqi7ZhsfyqRZ2aou9)"><g id="Group"><g id="Group"><path d=" M 133.172 51.371 L 133.173 42.434 L 81.926 138.375 L 30.678 234.316 L 81.894 330.434 L 133.11 426.551 L 133.112 417.597 L 86.667 330.434 L 35.451 234.316 L 86.698 138.375 L 133.172 51.371 Z " fill="rgb(46,46,46)"/><rect x="84.5" y="40.434" width="4" height="384.117" transform="matrix(1,0,0,1,0,0)" fill="rgb(46,46,46)"/></g><g id="Group"><path d=" M 146.68 51.371 L 146.678 42.434 L 197.926 138.375 L 249.173 234.316 L 197.957 330.434 L 146.741 426.551 L 146.739 417.597 L 193.185 330.434 L 244.401 234.316 L 193.153 138.375 L 146.68 51.371 Z " fill="rgb(46,46,46)"/><rect x="191.351" y="40.434" width="4" height="384.117" transform="matrix(1,0,0,1,0,0)" fill="rgb(46,46,46)"/></g></g></g><g transform="matrix(1,0,0,1,-18.124,3)"><text transform="matrix(1,0,0,1,37.301,33.68)" style="font-family:&quot;Archivo Narrow&quot;;font-weight:400;font-size:36px;font-style:normal;letter-spacing:23;fill:#2e2e2e;stroke:none;">AGENC</text><text transform="matrix(1,0,0,1,257.26,33.68)" style="font-family:&quot;Archivo Narrow&quot;;font-weight:400;font-size:36px;font-style:normal;fill:#2e2e2e;stroke:none;">Y</text></g><g transform="matrix(1,0,0,1,-18.124,425)"><text transform="matrix(1,0,0,1,36.204,33.68)" style="font-family:&quot;Archivo Narrow&quot;;font-weight:400;font-size:36px;font-style:normal;letter-spacing:3;fill:#2e2e2e;stroke:none;">AUTONOMOU</text><text transform="matrix(1,0,0,1,258.357,33.68)" style="font-family:&quot;Archivo Narrow&quot;;font-weight:400;font-size:36px;font-style:normal;fill:#2e2e2e;stroke:none;">S</text></g></g></svg>