<?xml version="1.0" standalone="no"?><!-- Generator: Gravit.io --><svg xmlns="http://www.w3.org/2000/svg" xmlns:xlink="http://www.w3.org/1999/xlink" style="isolation:isolate" viewBox="-30 -30 340 530" width="340" height="530" class="logo"><defs><clipPath id="_clipPath_HsQsKzj4ioAkp7wqBhSAN7K8AjajcTTa"><rect width="280" height="470"/></clipPath></defs><path class="top-left" d=" M 30.678 234.316 L 126.172 55.541 L 130.944 55.541 L 35.451 234.316 L 30.678 234.316 Z " fill="rgb(255,255,255)"/><path class="bottom-left" d=" M 130.424 412.554 L 35.451 234.316 L 30.678 234.316 L 125.652 412.554 L 130.424 412.554 Z " fill="rgb(255,255,255)"/><path class="left" d=" M 84.5 412.554 L 84.5 55.541 L 88.5 55.541 L 88.5 412.554 L 84.5 412.554 Z " fill="rgb(255,255,255)"/><path class="top-right" d=" M 153.683 55.548 L 249.173 234.316 L 244.401 234.316 L 148.911 55.548 L 153.683 55.548 Z " fill="rgb(255,255,255)"/><path class="bottom-right" d=" M 154.204 412.545 L 249.173 234.316 L 244.401 234.316 L 149.431 412.545 L 154.204 412.545 Z " fill="rgb(255,255,255)"/><path class="right" d=" M 195.351 412.545 L 195.351 55.548 L 191.351 55.548 L 191.351 412.545 L 195.351 412.545 Z " fill="rgb(255,255,255)"/><g transform="matrix(1,0,0,1,-18.124,3)"><text transform="matrix(1,0,0,1,37.301,33.68)" style="font-family:&quot;Archivo Narrow&quot;;font-weight:400;font-size:36px;font-style:normal;letter-spacing:23;fill:#ffffff;stroke:none;">AGENC</text><text transform="matrix(1,0,0,1,257.26,33.68)" style="font-family:&quot;Archivo Narrow&quot;;font-weight:400;font-size:36px;font-style:normal;fill:#ffffff;stroke:none;">Y</text></g><g transform="matrix(1,0,0,1,-18.124,425)"><text transform="matrix(1,0,0,1,36.204,33.68)" style="font-family:&quot;Archivo Narrow&quot;;font-weight:400;font-size:36px;font-style:normal;letter-spacing:3;fill:#ffffff;stroke:none;">AUTONOMOU</text><text transform="matrix(1,0,0,1,258.357,33.68)" style="font-family:&quot;Archivo Narrow&quot;;font-weight:400;font-size:36px;font-style:normal;fill:#ffffff;stroke:none;">S</text></g></svg>